PathFileType	4	(X/Y/Z)	./resultDataOpenSim/trcMotMarkerGrf/sub10/qtm-14-05.trc
DataRate	CameraRate	NumFrames	NumMarkers	Units	OrigDataRate	OrigDataStartFrame	OrigNumFrames
250.000000	250.000000	14	24	m	250.000000	365	486
Frame#	Time	L.Toe.Tip			R.Toe.Tip			L.Ankle.Lat			R.Ankle.Lat			L.Ankle.Med			R.Ankle.Med			L.Heel			R.Heel			L.Knee.Lat			R.Knee.Lat			L.Knee.Med			R.Knee.Med			L.Thigh.Upper			R.Thigh.Upper			L.ASIS			R.ASIS			V.Sacral			L.Acromium			R.Acromium			C7			L.Elbow			R.Elbow			L.Wrist.Lat			R.Wrist.Lat
		X1	Y1	Z1	X2	Y2	Z2	X3	Y3	Z3	X4	Y4	Z4	X5	Y5	Z5	X6	Y6	Z6	X7	Y7	Z7	X8	Y8	Z8	X9	Y9	Z9	X10	Y10	Z10	X11	Y11	Z11	X12	Y12	Z12	X13	Y13	Z13	X14	Y14	Z14	X15	Y15	Z15	X16	Y16	Z16	X17	Y17	Z17	X18	Y18	Z18	X19	Y19	Z19	X20	Y20	Z20	X21	Y21	Z21	X22	Y22	Z22	X23	Y23	Z23	X24	Y24	Z24

365	1.456	0.87278428	0.066717967	-0.16357623	0.79238894	0.038358403	0.012869128	0.78021066	0.16773008	-0.18389801	0.65005949	0.06864609	0.050960946	0.80142362	0.17532436	-0.099980664	0.68224226	0.10043056	-0.026862617	0.71079514	0.16916743	-0.13821074	0.60152136	0.055162652	0.00079975908	0.9604147	0.50081473	-0.17141523	0.7638023	0.45208962	0.11157019	0.9822812	0.47333121	-0.052334157	0.78896778	0.46231942	-0.013508241	0.80874735	0.84880882	-0.20058957	0.76225956	0.87046109	0.18024644	0.85562558	0.95413263	-0.12888537	0.84511784	0.9614737	0.10948558	0.65004288	0.98305759	-0.027155952	0.81169397	1.4460494	-0.1528226	0.79546505	1.4271325	0.16382134	0.72745237	1.4652376	-0.00086348754	0.64173353	1.1551709	-0.21237272	0.70865064	1.0838468	0.22253213	0.70260526	0.91858785	-0.26129036	0.85132686	0.92960729	0.3529945
366	1.46	0.8913325	0.065691578	-0.16377212	0.79253791	0.038481758	0.012900464	0.79563863	0.16385192	-0.18398487	0.65005642	0.069043891	0.050709842	0.81636918	0.1720442	-0.099916047	0.6824354	0.10080971	-0.027057506	0.72607105	0.1633069	-0.13828714	0.60166539	0.055665568	0.00048273244	0.96730422	0.50222751	-0.17063995	0.76393159	0.45262386	0.11165226	0.98945262	0.47458936	-0.051629836	0.78904716	0.46266076	-0.013534029	0.81482082	0.85018486	-0.20051723	0.76538744	0.87104652	0.18007864	0.86101285	0.95534031	-0.12835342	0.84859358	0.96241497	0.11013375	0.65471596	0.98373404	-0.028000947	0.81655583	1.4464772	-0.15274227	0.80003427	1.4276701	0.16408764	0.73204146	1.465906	-0.00084162691	0.6464052	1.1556438	-0.21237675	0.7149187	1.0834733	0.22336517	0.70754776	0.91908173	-0.26112036	0.86272233	0.93058077	0.35104789
367	1.464	0.90982474	0.064767598	-0.16381836	0.7927208	0.03858822	0.012921304	0.81118161	0.15997783	-0.18402047	0.65007419	0.069432215	0.050434198	0.83135541	0.16881284	-0.099761817	0.68265025	0.10118718	-0.027277106	0.74160214	0.15751157	-0.13825483	0.60178581	0.056134808	0.00011418367	0.97432021	0.50351631	-0.16986043	0.76407236	0.45313982	0.11173544	0.99600257	0.47572523	-0.05103616	0.78905962	0.4630657	-0.013674655	0.82087697	0.85148136	-0.20042511	0.76857924	0.87162997	0.17991501	0.86638035	0.95648089	-0.12780652	0.85208288	0.96328658	0.11077313	0.6594075	0.98433468	-0.028853542	0.82144372	1.4468289	-0.15265692	0.80459298	1.4281486	0.16434725	0.73663432	1.4664647	-0.00079594823	0.65109468	1.1560643	-0.2124098	0.72139183	1.0829778	0.22436679	0.71249803	0.91951092	-0.2609548	0.87408281	0.93156089	0.34906021
368	1.468	0.92823642	0.063951288	-0.16369679	0.79287697	0.038651877	0.012945085	0.82684036	0.1561422	-0.18399659	0.65010633	0.069808238	0.05015116	0.84636222	0.16563453	-0.099533553	0.68289737	0.10158016	-0.027554793	0.75731874	0.15180005	-0.13818117	0.60185852	0.056574021	-0.00033801462	0.98132255	0.50465919	-0.16909286	0.76420334	0.45364216	0.11179348	1.0023277	0.47672158	-0.050457601	0.7890601	0.46351003	-0.013877596	0.82692451	0.85269587	-0.20031947	0.77177077	0.87218919	0.17975432	0.87173979	0.95755513	-0.12724292	0.85558741	0.96408445	0.11140016	0.66414655	0.98484145	-0.029627131	0.82635394	1.4471114	-0.15256492	0.80914607	1.4285728	0.16460549	0.74123314	1.4669292	-0.00067839709	0.65580284	1.1564242	-0.21246732	0.72830198	1.0824198	0.22539076	0.71745026	0.9198688	-0.26079766	0.88541317	0.93254814	0.34703711
369	1.472	0.94659307	0.063245147	-0.16340803	0.79300721	0.038686132	0.012988756	0.84261834	0.15237796	-0.18391298	0.65014118	0.070172846	0.049886204	0.86155092	0.16253461	-0.099324194	0.68317066	0.10200026	-0.027881249	0.77314633	0.14617975	-0.13814793	0.60188012	0.057000197	-0.0008615295	0.98809977	0.50563515	-0.16835908	0.7643178	0.45413797	0.11181886	1.0085545	0.47755976	-0.049884864	0.78922498	0.46389501	-0.013975706	0.83296879	0.85382788	-0.20020134	0.77485634	0.87267932	0.1795826	0.87710713	0.95855595	-0.12666524	0.85910592	0.96480269	0.11200756	0.66897858	0.985225	-0.030180459	0.83128369	1.4473279	-0.15246752	0.81369552	1.4289501	0.16486268	0.74582874	1.467322	-0.00047438978	0.66052888	1.1567167	-0.21253524	0.73567315	1.0818582	0.22629689	0.72239529	0.92015707	-0.26064828	0.89670462	0.9335418	0.34497934
370	1.476	0.96492175	0.062654272	-0.16295885	0.79311558	0.038710824	0.013047005	0.85851921	0.14870855	-0.18377317	0.65016963	0.070530248	0.049655454	0.87739674	0.15958007	-0.099271991	0.6834557	0.10242305	-0.028183474	0.78906399	0.14065535	-0.13817398	0.6018849	0.057429035	-0.0013758888	0.99456733	0.50643	-0.16766583	0.76441958	0.45462445	0.11181665	1.0146878	0.47823353	-0.049333769	0.78968645	0.46414287	-0.013844445	0.83900636	0.85487634	-0.20006533	0.77781484	0.8730786	0.17938686	0.88248398	0.95947283	-0.12608377	0.86264043	0.96543729	0.11259219	0.6739094	0.98547102	-0.030465896	0.83623264	1.4474758	-0.15236302	0.81824255	1.4292828	0.16511659	0.7504091	1.4676554	-0.00024535163	0.66526951	1.1569425	-0.21261042	0.74335709	1.0813132	0.2270741	0.72733376	0.92037865	-0.26050231	0.90795496	0.93454042	0.34288518
371	1.48	0.98323488	0.0621841	-0.16234977	0.79316815	0.038728481	0.013084946	0.874543	0.14515379	-0.18357423	0.65018574	0.070885424	0.049458755	0.89445257	0.15684273	-0.099502525	0.68374048	0.10280133	-0.028383418	0.80511521	0.13524049	-0.13821749	0.60191347	0.05786108	-0.0017960412	1.0007895	0.50703667	-0.16701004	0.76451626	0.45509047	0.11179542	1.0207144	0.4787454	-0.048811706	0.79036714	0.46429067	-0.013552061	0.84502885	0.85583778	-0.19990464	0.78071772	0.87340124	0.17916276	0.88785896	0.96029631	-0.12550611	0.86619612	0.96598872	0.11315543	0.67885622	0.98561041	-0.030656305	0.84119811	1.4475514	-0.15224625	0.82278591	1.4295644	0.1653621	0.75497619	1.4679267	-7.7306584e-05	0.67002098	1.1571062	-0.21270811	0.75117766	1.0807757	0.22778688	0.73227398	0.9205327	-0.26035899	0.91917237	0.93554135	0.34075285
372	1.484	1.0015292	0.061837679	-0.16157054	0.79314618	0.038735695	0.013082073	0.8906761	0.1417333	-0.18330635	0.65018358	0.071242067	0.049287239	0.91253498	0.15428358	-0.099975047	0.68401307	0.10311433	-0.028474458	0.82136842	0.12995325	-0.1382426	0.60196991	0.058285123	-0.0021096659	1.0068557	0.50745512	-0.16639491	0.76461697	0.45553168	0.11176626	1.0266312	0.47910365	-0.048312592	0.79107765	0.4644306	-0.013269674	0.85103081	0.85670293	-0.19971612	0.78360386	0.87366029	0.17891136	0.8932289	0.96102306	-0.12492808	0.86977361	0.96645725	0.11369675	0.68371167	0.98569406	-0.031018272	0.84617356	1.4475526	-0.15211684	0.82732022	1.4297862	0.16559379	0.75953582	1.4681245	6.2668693e-07	0.67477528	1.1572155	-0.21286131	0.75899744	1.0802381	0.22851439	0.73722053	0.92061975	-0.26022128	0.93036301	0.9365442	0.33858344
373	1.488	1.0197883	0.061617339	-0.16061062	0.79308449	0.038736731	0.013059682	0.90688456	0.13845357	-0.1829645	0.65015859	0.071600747	0.04913129	0.93023133	0.15168604	-0.10035119	0.68424758	0.10338457	-0.02851686	0.83784479	0.12482079	-0.13824743	0.60203235	0.058693071	-0.0023573134	1.0128042	0.50769856	-0.16583133	0.76472908	0.45595507	0.11174003	1.0324411	0.47931766	-0.047829458	0.79171112	0.46460629	-0.013095324	0.85701268	0.85745874	-0.19950129	0.7864643	0.8738574	0.1786315	0.89861519	0.96165785	-0.12434202	0.87336713	0.96683868	0.11421305	0.68845816	0.98573351	-0.031670472	0.8511534	1.4474794	-0.15197881	0.83184142	1.4299449	0.16581171	0.76408811	1.4682444	1.668147e-05	0.67951345	1.1572802	-0.21311512	0.76671494	1.0797055	0.22933402	0.74217702	0.9206423	-0.26008898	0.94152355	0.93755466	0.33638175
374	1.492	1.0379943	0.061523425	-0.15946955	0.79301822	0.038735489	0.013042067	0.92313291	0.13529822	-0.18255278	0.65011267	0.071956504	0.048981632	0.94613002	0.14886981	-0.10024135	0.68441562	0.10364587	-0.028572269	0.85447075	0.11989962	-0.13823071	0.60208604	0.059084314	-0.002573319	1.0186536	0.50778656	-0.16532509	0.76485689	0.45636959	0.11172343	1.0381589	0.47939415	-0.04735934	0.79227771	0.46481028	-0.013018781	0.86297775	0.8580975	-0.19926513	0.78936338	0.8740117	0.17830137	0.90404836	0.96220519	-0.12375056	0.87697187	0.9671275	0.11470414	0.69316218	0.98569906	-0.032549482	0.85613228	1.4473339	-0.15183455	0.83635122	1.4300436	0.16602	0.76863783	1.4682953	6.9453077e-06	0.68422545	1.157301	-0.21347965	0.77431789	1.0791767	0.23026735	0.74714735	0.92060123	-0.25996057	0.95265501	0.93858151	0.3341521
375	1.496	1.0561329	0.061546938	-0.15815041	0.79293919	0.038727027	0.013025411	0.93941814	0.1322564	-0.18206953	0.65005582	0.072298565	0.048827798	0.96051658	0.14599518	-0.09961681	0.68451806	0.10391188	-0.028659608	0.8711631	0.11525215	-0.13815578	0.60213103	0.059457954	-0.0027720404	1.0244506	0.50772647	-0.16486319	0.76500403	0.45677769	0.11171927	1.043823	0.47934409	-0.046897137	0.79282798	0.46502622	-0.012988805	0.86892831	0.85861895	-0.19901727	0.79246666	0.87416021	0.17786325	0.90953418	0.96266107	-0.12316267	0.88058812	0.96732209	0.11517409	0.6978813	0.98556162	-0.033534307	0.86110519	1.4471195	-0.15168486	0.84085105	1.4300846	0.16622198	0.77319143	1.4682864	-9.8167011e-06	0.6889271	1.157266	-0.21391071	0.78194574	1.0786244	0.23120863	0.75212989	0.92049613	-0.25983687	0.96376193	0.93962801	0.33189289
376	1.5	1.0741881	0.061666587	-0.15664873	0.79282706	0.038706124	0.012997785	0.95577063	0.12936086	-0.18149591	0.65000065	0.072616602	0.048660427	0.97480736	0.14341767	-0.098749997	0.68458515	0.10417556	-0.028764869	0.88793739	0.11090851	-0.13795707	0.60217389	0.059808048	-0.0029606923	1.030229	0.50751522	-0.16443173	0.76517315	0.45717084	0.11172648	1.0494701	0.47918254	-0.046438374	0.79340104	0.46523506	-0.012965911	0.87486463	0.8590228	-0.19877263	0.79584584	0.87430012	0.17727964	0.91504412	0.963017	-0.122579	0.88421883	0.96742579	0.11562632	0.70262731	0.98531377	-0.034534716	0.86607564	1.4468378	-0.15153061	0.84533497	1.430063	0.16641702	0.77774429	1.468215	-3.0786715e-05	0.69362888	1.157169	-0.21439588	0.78977171	1.0780151	0.23199878	0.75712381	0.92032376	-0.25971586	0.97482108	0.94068147	0.32959407
377	1.504	1.0921393	0.061859012	-0.15495408	0.79269564	0.038678365	0.012965165	0.97220814	0.12666649	-0.1808097	0.64995516	0.072907522	0.048479163	0.98976061	0.14128188	-0.097845665	0.68465183	0.10442171	-0.028869894	0.90481488	0.10689486	-0.13761658	0.60221918	0.060128408	-0.003146556	1.0359716	0.50715633	-0.1640428	0.76536408	0.45753372	0.11173913	1.0550977	0.47891625	-0.045990149	0.79401671	0.46541243	-0.012932814	0.88078615	0.85930692	-0.19854477	0.79927832	0.87435528	0.1766924	0.92054501	0.96326788	-0.12199078	0.887867	0.96744297	0.1160609	0.70739344	0.98496613	-0.035523591	0.87105585	1.4464865	-0.15137057	0.84979816	1.4299722	0.16660272	0.78229306	1.4680709	-5.7260973e-05	0.69833142	1.1570103	-0.21494454	0.79782072	1.0773459	0.23259067	0.76213523	0.92007789	-0.25959491	0.98579555	0.94171755	0.3272431
378	1.508	1.1099655	0.062111478	-0.15305938	0.79258711	0.038655209	0.012945911	0.98870535	0.12420713	-0.17999935	0.64992057	0.07317331	0.048296546	1.0051867	0.13948943	-0.096932745	0.68474132	0.10463453	-0.02896306	0.92170649	0.10326675	-0.13723443	0.60226648	0.06041928	-0.0033358012	1.041665	0.50666603	-0.16371787	0.76557569	0.45785952	0.11175126	1.0606797	0.47854684	-0.045564685	0.7946818	0.46554268	-0.012886221	0.88669193	0.8594718	-0.1983406	0.80242458	0.87425503	0.17641003	0.92602766	0.96341491	-0.12139148	0.8915361	0.96737539	0.11647604	0.71218157	0.98452791	-0.036528323	0.87605415	1.4460614	-0.15119994	0.85424926	1.4298121	0.16678256	0.78684755	1.4678459	-8.5781227e-05	0.70306022	1.1567734	-0.21547847	0.80599873	1.0766399	0.23305999	0.76716801	0.91975723	-0.25947944	0.99667539	0.9427312	0.32484058
